<?xml version="1.0" encoding="UTF-8" standalone="no"?><!DOCTYPE svg PUBLIC "-//W3C//DTD SVG 1.1//EN" "http://www.w3.org/Graphics/SVG/1.1/DTD/svg11.dtd"><svg width="100%" height="100%" viewBox="0 0 69 41" version="1.1" xmlns="http://www.w3.org/2000/svg" xmlns:xlink="http://www.w3.org/1999/xlink" xml:space="preserve" xmlns:serif="http://www.serif.com/" style="fill-rule:evenodd;clip-rule:evenodd;stroke-linejoin:round;stroke-miterlimit:2;"><path d="M61.865,25.474c-0.173,0 -0.292,-0.119 -0.292,-0.292l-0,-8.554l-2.906,-0c-0.173,-0 -0.292,-0.12 -0.292,-0.292l-0,-1.18c-0,-0.173 0.119,-0.293 0.292,-0.293l7.735,0c0.173,0 0.292,0.12 0.292,0.293l-0,1.18c-0,0.172 -0.119,0.292 -0.292,0.292l-2.906,-0l0,8.554c0,0.173 -0.119,0.292 -0.291,0.292l-1.34,0Zm-22.262,-4.271l-1.525,-4.376l-1.54,4.376l3.065,0Zm3.384,3.926c0.066,0.173 -0.04,0.345 -0.226,0.345l-1.38,0c-0.199,0 -0.318,-0.092 -0.385,-0.279l-0.782,-2.254l-4.286,0l-0.783,2.254c-0.066,0.187 -0.186,0.279 -0.385,0.279l-1.3,0c-0.172,0 -0.292,-0.173 -0.225,-0.345l3.595,-10c0.067,-0.186 0.186,-0.265 0.385,-0.265l1.778,-0c0.199,-0 0.332,0.079 0.398,0.265l3.596,10Zm10.306,-1.087c0.849,-0 1.42,-0.411 1.884,-1.114l-2.149,-2.308c-0.823,0.464 -1.354,0.928 -1.354,1.857c0,0.915 0.743,1.565 1.619,1.565m0.597,-7.773c-0.69,0 -1.088,0.438 -1.088,1.022c0,0.451 0.239,0.849 0.783,1.432c0.942,-0.544 1.34,-0.875 1.34,-1.459c-0,-0.544 -0.345,-0.995 -1.035,-0.995m5.878,8.834c0.173,0.186 0.067,0.371 -0.146,0.371l-1.685,0c-0.226,0 -0.345,-0.053 -0.491,-0.226l-1.008,-1.113c-0.677,0.902 -1.62,1.578 -3.185,1.578c-1.937,-0 -3.463,-1.167 -3.463,-3.169c-0,-1.539 0.823,-2.362 2.07,-3.052c-0.611,-0.702 -0.889,-1.445 -0.889,-2.095c0,-1.645 1.154,-2.772 2.892,-2.772c1.778,-0 2.866,1.048 2.866,2.6c0,1.326 -0.955,2.068 -1.963,2.625l1.486,1.606l0.836,-1.46c0.106,-0.172 0.225,-0.238 0.437,-0.238l1.287,-0c0.212,-0 0.332,0.146 0.2,0.371l-1.487,2.546l2.243,2.428Zm-13.241,0.371c0.172,0 0.292,-0.119 0.292,-0.292l0,-8.554l2.906,-0c0.172,-0 0.291,-0.12 0.291,-0.292l0,-1.18c0,-0.173 -0.119,-0.293 -0.291,-0.293l-7.736,0c-0.173,0 -0.292,0.12 -0.292,0.293l0,1.18c0,0.172 0.119,0.292 0.292,0.292l2.905,-0l0,8.554c0,0.173 0.12,0.292 0.292,0.292l1.341,0Z" style="fill-rule:nonzero;"/><path d="M7.259,30.635c2.251,1.741 5.075,2.788 8.139,2.788c3.354,-0 6.411,-1.245 8.744,-3.289c0.028,-0.025 0.014,-0.041 -0.014,-0.025c-1.047,0.699 -4.031,2.226 -8.73,2.226c-4.083,-0 -6.664,-0.911 -8.121,-1.725c-0.028,-0.014 -0.038,0.007 -0.018,0.025m9.04,0.678c3.266,-0 6.855,-0.891 9.002,-2.653c0.587,-0.48 1.147,-1.119 1.648,-1.978c0.289,-0.495 0.571,-1.082 0.801,-1.659c0.01,-0.028 -0.008,-0.042 -0.029,-0.01c-1.996,2.938 -7.776,4.77 -13.745,4.77c-4.219,-0 -8.758,-1.349 -10.536,-3.925c-0.017,-0.024 -0.035,-0.014 -0.024,0.013c1.656,3.519 6.678,5.442 12.883,5.442m-3.568,-5.838c-6.793,-0 -9.996,-3.164 -10.577,-5.323c-0.007,-0.031 -0.028,-0.024 -0.028,0.004c-0,0.727 0.073,1.665 0.198,2.287c0.06,0.303 0.306,0.779 0.668,1.158c1.645,1.715 5.746,4.117 12.848,4.117c9.676,0 11.889,-3.223 12.34,-4.283c0.323,-0.758 0.491,-2.128 0.491,-3.279c-0,-0.279 -0.007,-0.501 -0.018,-0.719c0,-0.036 -0.02,-0.039 -0.027,-0.004c-0.484,2.594 -8.751,6.042 -15.895,6.042m-9.326,-11.011c-0.389,0.773 -0.82,2.076 -0.948,2.75c-0.057,0.289 -0.033,0.428 0.069,0.644c0.814,1.727 4.932,4.491 14.538,4.491c5.861,0 10.414,-1.44 11.151,-4.067c0.136,-0.484 0.143,-0.994 -0.031,-1.682c-0.195,-0.769 -0.56,-1.666 -0.869,-2.296c-0.01,-0.02 -0.029,-0.017 -0.025,0.007c0.115,3.446 -9.495,5.667 -14.344,5.667c-5.252,0 -9.634,-2.092 -9.634,-4.735c0,-0.254 0.053,-0.507 0.118,-0.772c0.007,-0.024 -0.014,-0.028 -0.025,-0.007m20.758,-4.231c0.056,0.088 0.084,0.181 0.084,0.306c-0,1.474 -4.512,4.082 -11.693,4.082c-5.277,0 -6.265,-1.957 -6.265,-3.202c-0,-0.445 0.171,-0.901 0.546,-1.363c0.021,-0.028 0.003,-0.038 -0.02,-0.018c-0.687,0.582 -1.313,1.232 -1.868,1.941c-0.264,0.333 -0.428,0.629 -0.428,0.806c-0,2.58 6.469,4.451 12.518,4.451c6.445,-0 9.321,-2.104 9.321,-3.953c0,-0.661 -0.257,-1.047 -0.915,-1.795c-0.427,-0.486 -0.831,-0.882 -1.259,-1.272c-0.021,-0.017 -0.035,-0.004 -0.021,0.017m-1.976,-1.474c-1.989,-1.192 -4.298,-1.87 -6.789,-1.87c-2.507,-0 -4.887,0.702 -6.883,1.926c-0.599,0.368 -0.936,0.664 -0.936,1.043c0,1.119 2.616,2.322 7.256,2.322c4.591,0 8.153,-1.318 8.153,-2.586c-0,-0.303 -0.265,-0.515 -0.801,-0.835" style="fill-rule:nonzero;"/></svg>