<?xml version="1.0" encoding="UTF-8" standalone="no"?><!DOCTYPE svg PUBLIC "-//W3C//DTD SVG 1.1//EN" "http://www.w3.org/Graphics/SVG/1.1/DTD/svg11.dtd"><svg width="100%" height="100%" viewBox="0 0 103 41" version="1.1" xmlns="http://www.w3.org/2000/svg" xmlns:xlink="http://www.w3.org/1999/xlink" xml:space="preserve" xmlns:serif="http://www.serif.com/" style="fill-rule:evenodd;clip-rule:evenodd;stroke-linejoin:round;stroke-miterlimit:2;"><path d="M29.483,20.453c-1.705,0 -2.553,1.254 -2.553,2.947c0,1.761 0.815,2.993 2.553,2.993c1.739,-0 2.551,-1.232 2.551,-2.993c0,-1.693 -0.847,-2.947 -2.551,-2.947m-0,4.788c-0.453,-0 -0.655,-0.407 -0.655,-1.842c0,-1.31 0.134,-1.795 0.655,-1.795c0.519,0 0.654,0.485 0.654,1.795c-0,1.436 -0.203,1.842 -0.654,1.842m3.73,-5.271l-0,0.633l-0.746,-0l-0,1.288l0.746,0l-0,4.379l1.829,-0l0,-4.379l0.996,0l-0,-1.288l-0.996,-0l0,-0.575c0,-0.344 0.174,-0.533 0.656,-0.533c0.101,0 0.236,0.022 0.339,0.046l0,-1.4c-0.295,-0.034 -0.566,-0.068 -0.926,-0.068c-1.208,0 -1.898,0.508 -1.898,1.897m-19.502,2.225c-0,-1.253 -1.14,-1.726 -2.237,-1.726c-1.037,0 -2.055,0.45 -2.257,1.568l1.591,0.328c0.02,-0.331 0.16,-0.744 0.6,-0.744c0.315,-0 0.473,0.224 0.473,0.562l-0,0.488c-1.209,0.14 -2.874,0.576 -2.914,2.051c-0.028,1.042 0.667,1.658 1.579,1.658c0.539,0 1.079,-0.298 1.391,-0.627c0.012,0.094 0.024,0.362 0.058,0.518l1.886,0c-0.069,-0.077 -0.171,-0.271 -0.171,-0.914l0.001,-3.162Zm-1.83,2.632c-0.155,0.204 -0.378,0.352 -0.586,0.352c-0.328,-0 -0.531,-0.206 -0.531,-0.601c-0,-0.723 0.478,-0.966 1.117,-1.028l0,1.277Zm6.316,-4.359c-0.714,0 -1.217,0.331 -1.594,0.715l-0.024,-0l-0.009,-0.58l-1.79,-0l-0,5.667l1.829,0l0,-4.053c0.167,-0.214 0.389,-0.352 0.595,-0.352c0.306,0 0.422,0.179 0.422,0.502l-0,3.903l1.829,-0l0,-4.483c0.001,-0.777 -0.457,-1.319 -1.258,-1.319m7.412,0.134l-1.819,0l-1.346,1.713l-0.022,0l-0,-4.083l-1.831,-0l0,8.038l1.831,-0l-0,-2.03l0.384,-0.442l0.022,-0l0.892,2.472l1.897,-0l-1.539,-3.923l1.531,-1.745Zm-18.592,1.487l0,-0.063c0.583,-0.227 1.312,-0.78 1.312,-1.831c0,-1.11 -0.936,-1.964 -2.36,-1.964l-3.178,0l-0,8.039l3.097,0c1.526,0 2.632,-0.774 2.632,-2.15c-0,-1.03 -0.632,-1.744 -1.503,-2.031m-2.251,-2.435l0.711,0c0.462,0 0.979,0.124 0.979,0.891c0,0.476 -0.29,0.87 -1.025,0.87l-0.665,0l-0,-1.761Zm0.745,5.127l-0.745,-0l-0,-2.011l0.745,0c0.655,0 1.025,0.396 1.025,0.994c0,0.824 -0.585,1.017 -1.025,1.017m69.43,0.576l0,-3.162c0,-1.253 -1.138,-1.726 -2.235,-1.726c-1.038,0 -2.056,0.45 -2.258,1.568l1.592,0.328c0.019,-0.331 0.159,-0.744 0.599,-0.744c0.314,-0 0.474,0.224 0.474,0.562l-0,0.488c-1.21,0.14 -2.877,0.576 -2.916,2.051c-0.028,1.042 0.666,1.658 1.58,1.658c0.539,0 1.078,-0.298 1.393,-0.627c0.009,0.094 0.022,0.362 0.055,0.518l1.885,0c-0.066,-0.078 -0.169,-0.271 -0.169,-0.914m-1.827,-0.53c-0.158,0.204 -0.38,0.352 -0.588,0.352c-0.328,-0 -0.531,-0.206 -0.531,-0.601c-0,-0.723 0.478,-0.966 1.118,-1.028l0.001,1.277Zm-18.116,-4.374c-1.683,0 -2.52,1.355 -2.52,2.959c0,1.569 0.791,2.981 2.541,2.981c1.01,0.031 1.93,-0.596 2.271,-1.548l-1.233,-0.452c-0.091,0.457 -0.463,0.779 -0.905,0.779c-0.736,-0 -0.87,-0.838 -0.845,-1.343l3.062,0l-0,-0.384c-0,-1.478 -0.61,-2.992 -2.371,-2.992m0.677,2.291l-1.368,0c-0.028,-0.533 0.159,-1.139 0.679,-1.139c0.632,-0 0.706,0.614 0.689,1.139m6.627,-2.141l1.828,-0l0,5.667l-1.828,0l-0,-5.667Zm-0,-2.372l1.828,0l0,1.626l-1.828,0l-0,-1.626Zm5.267,3.374c0.294,-0 0.44,0.158 0.53,0.383c0.08,0.215 0.091,0.486 0.091,0.712l1.56,0c-0,-0.564 -0.295,-2.246 -2.236,-2.246c-1.727,0 -2.585,1.547 -2.585,3.094c0,1.399 0.857,2.846 2.506,2.846c1.333,-0 2.123,-0.722 2.259,-2.1l-1.423,-0.204c0,0.429 -0.056,1.082 -0.7,1.082c-0.473,0 -0.677,-0.416 -0.677,-1.693c-0.003,-1.129 0.066,-1.874 0.675,-1.874m-28.352,-3.373l-1.885,8.038l1.761,0l0.351,-1.624l1.863,-0l0.316,1.624l1.976,0l-1.717,-8.038l-2.665,-0Zm0.509,4.99l0.679,-3.275l0.041,0l0.578,3.275l-1.298,0Zm20.215,-1.852l-0.031,-0l-0.018,-0.768l-1.77,0l-0,5.668l1.831,-0l-0,-3.67c0.214,-0.256 0.536,-0.439 1.003,-0.439c0.315,0 0.538,0.077 0.746,0.157l-0,-1.85c-0.706,0 -1.388,0.303 -1.761,0.902m-9.534,-0.902c-0.766,0 -1.312,0.413 -1.632,0.758l-0.024,0c-0.172,-0.437 -0.543,-0.758 -1.099,-0.758c-0.682,0 -1.255,0.352 -1.638,0.713l-0.023,-0l-0.01,-0.578l-1.785,0l-0,5.668l1.795,-0l-0,-4.042c0.154,-0.209 0.429,-0.349 0.621,-0.349c0.339,-0 0.429,0.202 0.429,0.508l0,3.883l1.796,-0l-0,-4.042c0.119,-0.157 0.38,-0.349 0.626,-0.349c0.332,-0 0.425,0.202 0.425,0.508l0,3.883l1.795,-0l-0,-4.518c-0,-0.783 -0.515,-1.285 -1.276,-1.285m35.78,-3.51c0.726,0.287 1.443,0.594 2.151,0.922c-2.25,0.913 -4.426,1.997 -6.511,3.241c-0.703,-0.368 -1.417,-0.717 -2.141,-1.044c2.08,-1.211 4.254,-2.254 6.501,-3.119m-2.684,-0.948c-2.333,0.739 -4.588,1.707 -6.731,2.888c0.681,0.247 1.356,0.509 2.021,0.79c2.077,-1.222 4.264,-2.245 6.532,-3.057c-0.603,-0.221 -1.21,-0.428 -1.822,-0.621" style="fill-rule:nonzero;"/><path d="M91.076,16.867c-1.844,-0.892 -3.754,-1.64 -5.713,-2.237c-0.691,0.199 -1.376,0.416 -2.054,0.652c2.017,0.598 3.984,1.354 5.881,2.263c0.623,-0.24 1.252,-0.466 1.886,-0.678m3.001,-0.895c-1.888,-0.822 -3.832,-1.509 -5.818,-2.054c-0.633,0.13 -1.262,0.276 -1.888,0.437c1.969,0.576 3.891,1.304 5.748,2.177c0.648,-0.201 1.301,-0.387 1.958,-0.56m4.818,1.619c-4.685,1.58 -9.114,3.836 -13.147,6.697c0.999,0.614 1.976,1.266 2.927,1.953c3.801,-3.015 7.995,-5.498 12.467,-7.378c-0.736,-0.445 -1.486,-0.87 -2.247,-1.272m-3.247,-1.543c-4.867,1.29 -9.49,3.368 -13.686,6.153c0.937,0.46 1.858,0.953 2.76,1.477c4.11,-2.847 8.642,-5.03 13.43,-6.47c-0.822,-0.413 -1.657,-0.8 -2.504,-1.16" style="fill-rule:nonzero;"/></svg>