<?xml version="1.0" encoding="UTF-8" standalone="no"?><!DOCTYPE svg PUBLIC "-//W3C//DTD SVG 1.1//EN" "http://www.w3.org/Graphics/SVG/1.1/DTD/svg11.dtd"><svg width="100%" height="100%" viewBox="0 0 90 41" version="1.1" xmlns="http://www.w3.org/2000/svg" xmlns:xlink="http://www.w3.org/1999/xlink" xml:space="preserve" xmlns:serif="http://www.serif.com/" style="fill-rule:evenodd;clip-rule:evenodd;stroke-linejoin:round;stroke-miterlimit:2;"><path d="M24.829,12.211c0.35,-0.245 0.711,-0.464 1.084,-0.699c0.276,0.286 0.538,0.563 0.783,0.86c-0.364,0.195 -0.716,0.416 -1.052,0.619c-0.261,-0.271 -0.533,-0.531 -0.815,-0.78m-1.449,-1.189c0.334,-0.274 0.701,-0.548 1.103,-0.818c0.301,0.257 0.592,0.508 0.867,0.763c-0.378,0.23 -0.745,0.476 -1.101,0.74c-0.275,-0.24 -0.566,-0.455 -0.869,-0.685Zm26.487,-2.813l-0.067,-0.055c-8.855,0.36 -17.163,3.129 -22.75,6.575c-0.243,-0.368 -0.508,-0.721 -0.793,-1.058c5.014,-3.095 12.01,-5.679 17.967,-6.459l-0.08,-0.045c-6.377,0.64 -12.615,2.578 -17.051,4.982c-0.188,-0.332 -0.402,-0.648 -0.641,-0.946c3.882,-2.234 8.877,-4.032 13.646,-4.906l-0.069,-0.049c-5.566,0.843 -10.6,2.398 -14.076,4.37c-0.251,-0.28 -0.526,-0.545 -0.828,-0.817c0.373,-0.225 0.753,-0.44 1.139,-0.643c0.172,0.177 0.341,0.359 0.501,0.545l0.196,-0.187c-0.11,-0.184 -0.228,-0.363 -0.354,-0.537c2.859,-1.451 6.405,-2.605 9.164,-3.147l-0.075,-0.046c-2.821,0.501 -6.576,1.357 -9.45,2.731c-2.361,-2.799 -7.156,-4.711 -14.123,-6.065l-0.061,0.041c6.3,1.428 10.917,3.572 13.758,6.233c-0.414,0.211 -0.804,0.434 -1.169,0.672c-3.343,-2.749 -9.254,-5.216 -17.048,-6.366l-0.066,0.037c6.87,1.248 12.618,3.728 16.488,6.768c-0.384,0.293 -0.726,0.593 -1.014,0.919c-4.296,-3.044 -11.101,-5.604 -20.204,-6.783l-0.063,0.043c7.528,1.202 15.369,3.855 20.691,8.331c-0.701,0.6 -1.269,1.231 -1.664,1.874l0.224,0.236c0.577,-0.561 1.239,-1.108 1.972,-1.646c0.278,0.236 0.546,0.494 0.808,0.75c-1.83,1.255 -3.142,2.609 -3.73,3.913l0.241,0.199c1.016,-1.176 2.436,-2.343 4.122,-3.461c0.306,0.338 0.597,0.659 0.873,1.009c-3.435,2.262 -5.701,4.76 -6.208,7.057l0.267,0.182c1.448,-2.442 3.772,-4.578 6.553,-6.452c0.436,0.604 0.83,1.236 1.18,1.893l0.244,-0.157c-0.126,-0.713 -0.382,-1.432 -0.759,-2.146c6.989,-4.433 16.514,-7.037 22.309,-7.389Z" style="fill-rule:nonzero;"/><path d="M44.744,24.459l1.396,-0l-0,5.781l-1.396,-0l-0,-5.781Zm-0.022,-2.451l1.44,-0l0,1.358l-1.44,0l0,-1.358Zm14.351,-0.183l1.399,-0l0,8.415l-1.399,-0l0,-8.415Zm2.921,-0l0.704,-0l0,3.597l3.084,-0l0,-3.597l0.707,-0l0,8.415l-0.707,0l0,-4.201l-3.084,-0l0,4.201l-0.704,0l-0,-8.415Zm9.094,5.132c0,-1.242 -0.505,-1.969 -1.286,-1.969c-0.884,0 -1.296,0.833 -1.296,1.969l2.582,-0Zm-2.582,0.613c-0,2.139 1.402,2.162 1.659,2.162c0.378,0 0.921,-0.185 1.252,-0.477l0.036,0.735c-0.277,0.154 -0.658,0.329 -1.356,0.329c-2.272,0 -2.343,-2.388 -2.343,-2.968c-0,-1.974 0.748,-2.97 2.038,-2.97c1.429,0 2.049,1.134 2.049,3.189l-3.335,-0Zm9.645,-5.745l0.684,-0l-0,8.415l-0.684,-0l-0,-8.415Zm3.159,1.284l0,1.348l1.186,0l-0,0.57l-1.186,0l0,3.811c0,0.466 0.059,0.907 0.668,0.907c0.276,-0 0.41,-0.062 0.518,-0.094l-0,0.588c-0.068,0.034 -0.25,0.081 -0.667,0.081c-0.999,0 -1.206,-0.654 -1.206,-1.302l0,-3.99l-0.872,-0l0,-0.57l0.872,-0l0,-1.157l0.687,-0.192Zm-48.967,4.308l-0.509,-0c-0.663,-0 -1.517,0.198 -1.517,1.087c0,0.526 0.346,0.887 0.89,0.887c0.744,-0 1.136,-0.609 1.136,-1.348l-0,-0.626Zm-2.745,-2.613c0.395,-0.182 0.935,-0.429 1.744,-0.429c1.735,0 2.307,0.856 2.307,2.181l-0,2.669c-0,0.416 0.045,0.794 0.075,1.015l-1.256,0c-0.069,-0.221 -0.081,-0.499 -0.081,-0.654l-0.02,-0c-0.187,0.205 -0.685,0.749 -1.608,0.749c-1.019,0 -1.746,-0.616 -1.746,-1.693c0,-1.563 1.383,-1.965 2.795,-1.965l0.535,0l-0,-0.217c-0,-0.571 -0.281,-1.095 -1.08,-1.095c-0.697,-0 -1.317,0.334 -1.587,0.56l-0.078,-1.121Zm26.795,2.613l-0.51,-0c-0.664,-0 -1.509,0.198 -1.509,1.087c-0,0.526 0.346,0.887 0.882,0.887c0.75,-0 1.138,-0.609 1.138,-1.348l-0,-0.626m-2.745,-2.613c0.39,-0.182 0.938,-0.429 1.744,-0.429c1.738,0 2.298,0.856 2.298,2.181l0,2.669c0,0.416 0.048,0.794 0.085,1.015l-1.253,0c-0.07,-0.221 -0.082,-0.499 -0.082,-0.654l-0.023,-0c-0.185,0.205 -0.683,0.749 -1.605,0.749c-1.019,0 -1.751,-0.616 -1.751,-1.693c-0,-1.563 1.391,-1.965 2.794,-1.965l0.538,0l-0,-0.217c-0,-0.571 -0.28,-1.095 -1.081,-1.095c-0.695,-0 -1.315,0.334 -1.583,0.56l-0.081,-1.121Zm-18.626,0.618c-0,-0.364 -0.014,-0.698 -0.047,-0.963l1.26,0c0.009,0.356 0.039,0.452 0.039,0.802l0.022,-0c0.11,-0.249 0.379,-0.885 1.48,-0.885c0.088,-0 0.157,0.018 0.236,0.031l0,1.292c-0.129,-0.03 -0.262,-0.045 -0.395,-0.045c-0.572,-0 -1.202,0.352 -1.202,1.431l-0,3.156l-1.393,0l-0,-4.819Zm5.813,3.891c0.822,0 1.105,-0.888 1.105,-1.979c0,-1.119 -0.32,-1.936 -1.081,-1.936c-0.78,0 -1.051,0.747 -1.051,1.903c0.001,1.341 0.218,2.012 1.027,2.012m2.495,-7.488l0,7.43c0,0.417 0.013,0.775 0.048,0.985l-1.309,-0c-0.028,-0.249 -0.042,-0.498 -0.042,-0.749l-0.033,0c-0.08,0.161 -0.446,0.844 -1.544,0.844c-1.441,-0 -2.036,-1.373 -2.036,-2.976c-0,-1.886 0.711,-2.984 2.147,-2.984c0.935,-0 1.268,0.56 1.352,0.675l0.027,0l0,-3.225l1.39,-0Zm-15.069,8.254c-0.149,0.057 -0.591,0.281 -1.699,0.281c-2.386,-0 -3.613,-1.743 -3.613,-4.035c0,-2.291 1.227,-4.033 3.568,-4.033c1.026,0 1.565,0.221 1.745,0.293l-0.077,1.304c-0.135,-0.084 -0.562,-0.406 -1.488,-0.406c-1.19,0 -2.215,0.817 -2.215,2.842c0,2.035 1.025,2.844 2.215,2.844c0.698,-0 1.16,-0.171 1.485,-0.405l0.079,1.315Zm19.295,-4.657c-0,-0.364 -0.012,-0.698 -0.045,-0.963l1.31,0c0.01,0.183 0.039,0.589 0.039,0.733l0.021,0c0.118,-0.177 0.485,-0.816 1.516,-0.816c1.205,-0 1.743,0.769 1.743,1.902l-0,3.963l-1.397,0l-0,-3.741c-0,-0.711 -0.421,-0.981 -0.896,-0.981c-0.463,-0 -0.895,0.255 -0.895,0.981l0,3.741l-1.396,0l-0,-4.819Zm35.886,-3.597l0.689,-0l0,3.163l0.012,0c0.163,-0.203 0.517,-0.605 1.397,-0.605c1.086,0 1.686,0.886 1.686,1.693l-0,4.164l-0.697,-0l0,-4.007c0,-0.767 -0.45,-1.285 -1.184,-1.285c-0.735,-0 -1.213,0.492 -1.213,1.285l-0,4.007l-0.689,-0l-0,-8.415m-8.053,5.506c-1.216,-0 -1.96,0.361 -1.96,1.269c0,0.575 0.36,1.111 1.125,1.111c0.309,-0 1.384,-0.124 1.384,-1.7l-0,-0.681l-0.549,0m0.549,-1.037c-0,-0.797 -0.285,-1.303 -1.26,-1.303c-0.781,0 -1.332,0.546 -1.4,0.604l-0.104,-0.698c0.328,-0.204 0.808,-0.512 1.562,-0.512c1.616,-0 1.893,1.172 1.893,1.782l0,2.784c0,0.434 0.032,0.863 0.066,1.29l-0.667,0l-0.036,-0.697l-0.022,-0c-0.149,0.192 -0.465,0.777 -1.568,0.777c-1.087,-0 -1.699,-0.678 -1.699,-1.706c0,-1.472 1.253,-1.852 2.742,-1.852l0.492,-0l0,-0.469l0.001,-0Z" style="fill-rule:nonzero;"/></svg>