<?xml version="1.0" encoding="UTF-8" standalone="no"?><!DOCTYPE svg PUBLIC "-//W3C//DTD SVG 1.1//EN" "http://www.w3.org/Graphics/SVG/1.1/DTD/svg11.dtd"><svg width="100%" height="100%" viewBox="0 0 51 41" version="1.1" xmlns="http://www.w3.org/2000/svg" xmlns:xlink="http://www.w3.org/1999/xlink" xml:space="preserve" xmlns:serif="http://www.serif.com/" style="fill-rule:evenodd;clip-rule:evenodd;stroke-linejoin:round;stroke-miterlimit:2;"><path d="M29.564,26.801l0,-13.793l7.655,0l-0,3.075l-4.412,-0l-0,1.963l4.412,-0l-0,2.958l-4.412,-0l-0,2.715l4.412,0l-0,3.082l-7.655,0Zm15.447,0l-1.911,-2.143l-1.895,2.143l-3.986,0l3.896,-4.377l-3.896,-4.378l4.111,-0l1.93,2.127l1.858,-2.127l3.967,-0l-3.877,4.36l3.931,4.395l-4.128,0Zm-14.847,-0.6l0,-12.593c0,0 6.455,0 6.455,0c-0,0 -0,1.875 -0,1.875c-0,-0 -4.412,-0 -4.412,-0l-0,3.163l4.412,-0c-0,-0 -0,1.758 -0,1.758c-0,-0 -4.412,-0 -4.412,-0l-0,3.915l4.412,0c-0,0 -0,1.882 -0,1.882l-6.455,0Zm15.116,0l-2.182,-2.447l-2.163,2.447c-0,0 -2.379,0 -2.379,0c0,0 3.362,-3.777 3.362,-3.777l-3.362,-3.778c0,-0 2.508,-0 2.508,-0c0,-0 2.205,2.429 2.205,2.429l2.122,-2.429c-0,-0 2.358,-0 2.358,-0c-0,-0 -3.344,3.761 -3.344,3.761l3.393,3.794l-2.518,0Z"/><path d="M26.334,13.008l-0,5.645l-0.036,0c-0.715,-0.821 -1.608,-1.108 -2.645,-1.108c-2.123,0 -3.722,1.445 -4.283,3.353c-0.641,-2.103 -2.292,-3.392 -4.74,-3.392c-1.989,-0 -3.559,0.892 -4.379,2.346l0,-1.807l-4.11,0l0,-1.962l4.486,0l-0,-3.074l-8.149,0l-0,13.792l3.663,0l0,-5.797l3.652,-0c-0.113,0.446 -0.169,0.904 -0.167,1.364c-0,2.875 2.197,4.896 5.003,4.896c2.358,0 3.914,-1.108 4.736,-3.126l-3.14,0c-0.424,0.608 -0.747,0.787 -1.596,0.787c-0.984,-0 -1.833,-0.859 -1.833,-1.876l6.393,-0c0.277,2.284 2.057,4.254 4.5,4.254c1.054,0 2.019,-0.518 2.609,-1.393l0.035,-0l0,0.893l3.23,0l0,-13.794l-3.229,0l-0,-0.001Zm-13.436,8.037c0.204,-0.876 0.883,-1.449 1.731,-1.449c0.934,0 1.579,0.555 1.748,1.449l-3.479,0Zm11.476,3.657c-1.191,0 -1.93,-1.109 -1.93,-2.267c-0,-1.238 0.643,-2.428 1.93,-2.428c1.334,0 1.866,1.19 1.866,2.428c-0,1.173 -0.563,2.267 -1.866,2.267Z" style="fill-rule:nonzero;"/></svg>