<?xml version="1.0" encoding="UTF-8" standalone="no"?><!DOCTYPE svg PUBLIC "-//W3C//DTD SVG 1.1//EN" "http://www.w3.org/Graphics/SVG/1.1/DTD/svg11.dtd"><svg width="100%" height="100%" viewBox="0 0 40 41" version="1.1" xmlns="http://www.w3.org/2000/svg" xmlns:xlink="http://www.w3.org/1999/xlink" xml:space="preserve" xmlns:serif="http://www.serif.com/" style="fill-rule:evenodd;clip-rule:evenodd;stroke-linejoin:round;stroke-miterlimit:2;"><path d="M17.03,17.978c1.643,-4.048 -1.429,-5.147 -3.429,-5.147l-6.625,-0c0.55,0.378 0.46,0.879 0.35,1.189l-3.862,12.336c-0.151,0.488 -0.729,1.003 -1.038,1.079l5.361,-0c-0.296,-0.055 -0.715,-0.474 -0.564,-1.045l1.402,-4.46c0.007,-0 6.453,0.873 8.405,-3.952Zm-5.209,-4.013c0.701,-0 2.646,0.096 1.388,3.773c-1.313,3.862 -4.226,3.065 -4.226,3.065l2.144,-6.838l0.694,-0Z" style="fill-rule:nonzero;"/><path d="M21.319,27.442l3.608,-0c-1.155,-0.371 -2.859,-1.464 -3.54,-2.241c0.55,-0.598 1.23,-1.354 1.354,-2.886l-1.869,-0c-0,-0 0.357,0.206 0.357,0.646c0,0.405 -0.165,0.969 -0.481,1.361c-0.55,-0.811 -1.134,-1.739 -1.34,-3.1c0.735,-0.364 1.766,-0.763 2.584,-1.478c0.777,-0.68 0.955,-1.326 0.969,-1.745l0,-0.055c0,-0.44 -0.172,-0.852 -0.488,-1.162c-0.543,-0.536 -1.395,-0.756 -2.295,-0.591c-0.722,0.138 -1.333,0.523 -1.643,0.804c-1.086,1.024 -1.223,2.708 -1.223,3.471c-0,0.186 0.007,0.323 0.014,0.406c-0.062,0.027 -0.172,0.068 -0.172,0.068c-0.797,0.296 -2.921,0.859 -3.677,2.605c-0.096,0.22 -0.234,0.701 -0.234,1.258c0,0.481 0.104,1.017 0.413,1.505c0.536,0.838 1.443,1.367 2.9,1.34c1.581,-0.028 3.141,-1.107 3.416,-1.306c0.268,0.254 0.975,0.921 1.347,1.1Zm-0,-9.759c-0.186,1.175 -1.712,2.364 -2.083,2.522c-0.068,-0.66 -0.034,-1.704 0.516,-2.557c0.364,-0.563 0.852,-0.811 1.244,-0.673c0.316,0.11 0.35,0.398 0.323,0.708Zm-2.117,7.862c-0.213,0.13 -1.052,0.556 -1.835,0.632c-0.729,0.069 -1.938,-0.213 -1.931,-1.67c-0,-1.244 1.354,-2.158 2.089,-2.474c0.296,1.203 0.962,2.563 1.677,3.512Z" style="fill-rule:nonzero;"/><path d="M32.28,13.978c2.144,-0.515 3.911,1.162 4.069,1.279l0.611,-1.945c-0.845,-0.254 -6.996,-2.337 -11.346,2.625c-2.674,3.052 -3.326,9.305 0.062,10.982c3.628,1.794 7.635,-0.275 7.931,-0.419l1.656,-5.278c0.178,-0.639 0.584,-1.051 1.299,-1.319l-5.759,-0c0.838,0.35 0.776,0.982 0.714,1.243l-1.656,5.278c-0.22,0.042 -4.852,1.196 -2.261,-6.906c0.57,-1.739 2.13,-4.928 4.68,-5.54Z" style="fill-rule:nonzero;"/></svg>