<?xml version="1.0" encoding="UTF-8" standalone="no"?><!DOCTYPE svg PUBLIC "-//W3C//DTD SVG 1.1//EN" "http://www.w3.org/Graphics/SVG/1.1/DTD/svg11.dtd"><svg width="100%" height="100%" viewBox="0 0 38 41" version="1.1" xmlns="http://www.w3.org/2000/svg" xmlns:xlink="http://www.w3.org/1999/xlink" xml:space="preserve" xmlns:serif="http://www.serif.com/" style="fill-rule:evenodd;clip-rule:evenodd;stroke-linejoin:round;stroke-miterlimit:2;"><path id="Wells-Fargo" d="M2.923,20.156l-0,15.929l31.834,-0l0,-31.858l-31.834,0l-0,15.929m27.157,-6.572c0.315,0.078 0.573,0.166 0.838,0.285l0.196,0.089l0,1.271l-0.295,0c-0.231,0 -0.296,-0.01 -0.296,-0.045c0,-0.58 -0.478,-0.956 -1.216,-0.956c-0.678,-0 -0.982,0.195 -0.982,0.63c-0,0.426 0.178,0.542 1.181,0.768c0.721,0.163 0.932,0.233 1.171,0.388c0.97,0.631 0.928,2.085 -0.074,2.591c-0.794,0.401 -2.269,0.354 -3.197,-0.102l-0.214,-0.104l-0.009,-0.714l-0.008,-0.713l0.075,-0.019c0.042,-0.011 0.171,-0.015 0.288,-0.009l0.212,0.01l0.07,0.217c0.24,0.747 0.577,0.991 1.374,0.996c0.71,0.003 1.02,-0.163 1.059,-0.569c0.051,-0.534 -0.126,-0.67 -1.203,-0.923c-1.118,-0.262 -1.49,-0.477 -1.727,-0.995c-0.45,-0.982 0.221,-1.967 1.477,-2.17c0.228,-0.037 1.021,0.009 1.28,0.074m-22.077,0.064c0.031,0.02 0.04,0.111 0.033,0.336l-0.01,0.309l-0.336,0.01c-0.185,0.005 -0.337,0.016 -0.337,0.025c0,0.018 0.215,0.784 0.469,1.673c0.098,0.343 0.212,0.754 0.254,0.912c0.041,0.158 0.08,0.283 0.087,0.276c0.017,-0.017 0.636,-2.214 0.816,-2.896c0.085,-0.325 0.17,-0.609 0.188,-0.632c0.058,-0.073 1.031,-0.057 1.071,0.018c0.028,0.052 0.6,2.089 0.894,3.183c0.06,0.22 0.112,0.397 0.117,0.392c0.017,-0.017 0.765,-2.845 0.765,-2.894c-0,-0.042 -0.056,-0.05 -0.33,-0.05l-0.329,-0l0.019,-0.673l3.003,-0.009c1.651,-0.005 3.036,-0.001 3.077,0.008l0.074,0.019l-0.008,0.828l-0.009,0.829l-0.552,-0l-0.102,-0.32c-0.205,-0.635 -0.288,-0.678 -1.307,-0.681l-0.615,-0.001l-0,1.478l1.445,-0l0.032,0.084c0.042,0.109 0.042,0.478 0,0.587l-0.032,0.084l-1.445,0l-0,1.511l0.739,-0c1.003,-0 1.066,-0.035 1.247,-0.69c0.048,-0.171 0.092,-0.331 0.1,-0.354c0.009,-0.031 0.085,-0.04 0.284,-0.033l0.271,0.01l0,1.74l-4.383,0.017l0.019,-0.674l0.607,-0.019l-0,-3.741l-0.943,-0l-0.101,0.32c-0.056,0.176 -0.331,1.141 -0.612,2.143c-0.281,1.003 -0.525,1.856 -0.542,1.897c-0.032,0.072 -0.045,0.074 -0.543,0.074l-0.51,-0l-0.03,-0.08c-0.017,-0.044 -0.15,-0.521 -0.297,-1.059c-0.23,-0.849 -0.624,-2.226 -0.678,-2.376c-0.009,-0.027 -0.098,0.232 -0.196,0.575c-0.098,0.343 -0.287,0.994 -0.421,1.445c-0.134,0.452 -0.285,0.969 -0.337,1.15l-0.094,0.328l-1.037,0l-0.225,-0.755c-0.124,-0.416 -0.409,-1.406 -0.633,-2.201l-0.407,-1.445l-0.599,-0.019l0,-0.324c0,-0.229 0.012,-0.329 0.041,-0.341c0.07,-0.028 2.303,-0.023 2.348,0.006m12.471,0c0.031,0.02 0.04,0.111 0.033,0.336l-0.01,0.309l-0.352,0.01l-0.353,0.009l-0,3.742l0.615,-0.001c0.888,-0.001 0.984,-0.062 1.158,-0.733l0.087,-0.333l0.284,-0.01l0.284,-0.009l0,1.776l-4.151,-0.017l-0.01,-0.29c-0.012,-0.378 -0.008,-0.383 0.359,-0.383l0.291,-0l-0.008,-1.864l-0.009,-1.864l-0.623,-0.033l-0.01,-0.29c-0.006,-0.186 0.004,-0.307 0.029,-0.337c0.043,-0.052 2.305,-0.069 2.386,-0.018m4.517,-0.008c0.042,0.016 0.052,0.079 0.052,0.344l-0,0.324l-0.673,0.018l-0.009,1.864l-0.008,1.864l0.605,-0c0.884,-0 0.988,-0.071 1.171,-0.801l0.07,-0.283l0.275,0c0.339,0 0.313,-0.082 0.301,0.953l-0.009,0.804l-4.135,0l-0,-0.657l0.607,-0.019l-0,-3.741l-0.624,-0l0,-0.323c0,-0.178 0.01,-0.333 0.022,-0.345c0.027,-0.027 2.284,-0.029 2.355,-0.002m-0.785,7.583c0.315,0.068 0.719,0.2 0.935,0.306l0.181,0.088l-0,1.314l-0.541,0.019l-0.129,-0.279c-0.271,-0.588 -0.58,-0.791 -1.201,-0.79c-1.019,0.002 -1.476,0.612 -1.476,1.97c-0,1.118 0.294,1.682 1.003,1.922c0.262,0.089 0.923,0.08 1.187,-0.016l0.156,-0.057l-0,-1.242l-0.855,0l-0.032,-0.084c-0.056,-0.146 -0.04,-0.523 0.025,-0.603c0.057,-0.069 0.072,-0.07 1.009,-0.061l0.952,0.009l0.017,2.304l-0.271,0.118c-2.437,1.053 -4.441,0.019 -4.438,-2.29c0.002,-1.916 1.507,-3.053 3.478,-2.628m5.371,0.015c2.589,0.687 2.646,4.556 0.077,5.208c-1.599,0.405 -3.051,-0.384 -3.427,-1.862c-0.534,-2.096 1.27,-3.897 3.35,-3.346m-18.761,0.921l-0,0.838l-0.271,0.009c-0.2,0.007 -0.275,-0.001 -0.284,-0.033c-0.008,-0.023 -0.051,-0.169 -0.098,-0.323c-0.184,-0.614 -0.262,-0.655 -1.258,-0.655l-0.731,0l-0,1.544l0.718,-0c0.855,-0 0.808,-0.023 0.808,0.394c-0,0.417 0.047,0.394 -0.808,0.394l-0.718,-0l-0,1.412l0.689,0l0,0.657l-2.429,0l0,-0.657l0.591,0l0,-3.744l-0.591,0l0,-0.69l4.382,0.017l-0,0.837m2.718,-0.361c0.105,0.262 0.287,0.705 0.404,0.985c0.117,0.28 0.383,0.931 0.59,1.445c0.207,0.515 0.43,1.066 0.495,1.224l0.117,0.287l0.943,0l0,-3.744l-0.591,0l0,-0.695l1.682,0.014c1.832,0.015 1.847,0.017 2.252,0.215c0.473,0.232 0.677,0.575 0.677,1.139c0,0.664 -0.319,1.073 -0.971,1.245c-0.098,0.025 -0.155,0.053 -0.128,0.062c0.575,0.189 0.721,0.38 0.806,1.06c0.081,0.646 0.16,0.77 0.488,0.77c0.182,-0 0.216,0.05 0.216,0.32c-0,0.316 -0.009,0.32 -0.58,0.32c-0.821,0 -1.096,-0.212 -1.195,-0.924c-0.145,-1.042 -0.312,-1.232 -1.105,-1.255l-0.402,-0.011l-0,1.482l0.673,0.019l0.009,0.32l0.009,0.32l-4.597,0l0,-0.657l0.279,0c0.331,0 0.321,0.035 0.134,-0.46l-0.142,-0.377l-1.855,-0l-0.31,0.821l0.582,0.019l-0,0.654l-1.937,0l0,-0.654l0.248,-0.01l0.248,-0.009l0.246,-0.608c0.136,-0.334 0.496,-1.236 0.801,-2.003c0.304,-0.768 0.578,-1.455 0.609,-1.527c0.03,-0.073 0.068,-0.165 0.083,-0.207c0.029,-0.073 0.035,-0.074 0.53,-0.065l0.501,0.009l0.191,0.476m14.922,0.109c-0.747,0.216 -1.064,0.796 -1.066,1.944c-0.001,0.618 0.019,0.745 0.18,1.175c0.388,1.037 2.001,1.096 2.509,0.092c0.316,-0.623 0.324,-1.841 0.016,-2.487c-0.281,-0.588 -1.004,-0.908 -1.639,-0.724m-11.224,0.859l-0,0.778l0.615,-0.011c0.86,-0.015 1.101,-0.157 1.147,-0.676c0.057,-0.624 -0.233,-0.837 -1.163,-0.856l-0.599,-0.012l-0,0.777m-4.913,0.558l-0.329,0.904l0.672,0c0.626,0 0.67,-0.003 0.649,-0.057c-0.012,-0.032 -0.155,-0.427 -0.319,-0.879c-0.163,-0.451 -0.307,-0.832 -0.32,-0.847c-0.014,-0.014 -0.172,0.381 -0.353,0.879"/></svg>