<?xml version="1.0" encoding="UTF-8" standalone="no"?><!DOCTYPE svg PUBLIC "-//W3C//DTD SVG 1.1//EN" "http://www.w3.org/Graphics/SVG/1.1/DTD/svg11.dtd"><svg width="100%" height="100%" viewBox="0 0 32 32" version="1.1" xmlns="http://www.w3.org/2000/svg" xmlns:xlink="http://www.w3.org/1999/xlink" xml:space="preserve" xmlns:serif="http://www.serif.com/" style="fill-rule:evenodd;clip-rule:evenodd;stroke-linejoin:round;stroke-miterlimit:2;"><path d="M24,22l0,-1l6,0l0,-2l-6,0l0,-6l6,0l0,-2l-6,0l0,-1c0,-1.097 -0.903,-2 -2,-2l-6,0c-4.009,0.007 -7.426,3.023 -7.931,7l-6.069,0l0,2l6.069,0c0.505,3.977 3.922,6.993 7.931,7l6,0c1.097,0 2,-0.903 2,-2Zm-8,0c-3.292,0 -6,-2.708 -6,-6c0,-3.292 2.708,-6 6,-6l6,0l0,12l-6,0Z" style="fill-rule:nonzero;"/></svg>