<?xml version="1.0" encoding="UTF-8" standalone="no"?><!DOCTYPE svg PUBLIC "-//W3C//DTD SVG 1.1//EN" "http://www.w3.org/Graphics/SVG/1.1/DTD/svg11.dtd"><svg width="100%" height="100%" viewBox="0 0 32 32" version="1.1" xmlns="http://www.w3.org/2000/svg" xmlns:xlink="http://www.w3.org/1999/xlink" xml:space="preserve" xmlns:serif="http://www.serif.com/" style="fill-rule:evenodd;clip-rule:evenodd;stroke-linejoin:round;stroke-miterlimit:2;"><path d="M27,29c1.104,0 2,-0.896 2,-2l0,-22c0,-1.104 -0.896,-2 -2,-2l-22,0c-1.104,0 -2,0.896 -2,2l0,22c0,1.104 0.896,2 2,2l22,0Zm-16,-2l0,-22l-6,0l0,22l6,0Zm8,-22l-6,0l0,22l6,0l0,-22Zm2,22l6,0l0,-22l-6,0l0,22Z"/></svg>