<?xml version="1.0" encoding="UTF-8" standalone="no"?><!DOCTYPE svg PUBLIC "-//W3C//DTD SVG 1.1//EN" "http://www.w3.org/Graphics/SVG/1.1/DTD/svg11.dtd"><svg width="100%" height="100%" viewBox="0 0 32 32" version="1.1" xmlns="http://www.w3.org/2000/svg" xmlns:xlink="http://www.w3.org/1999/xlink" xml:space="preserve" xmlns:serif="http://www.serif.com/" style="fill-rule:evenodd;clip-rule:evenodd;stroke-linejoin:round;stroke-miterlimit:2;"><path d="M30,4c0,-1.104 -0.896,-2 -2,-2l-24,0c-1.104,0 -2,0.896 -2,2l0,24c0,1.104 0.896,2 2,2l24,0c1.104,0 2,-0.896 2,-2l0,-24Zm-2,0l-24,0l0,24l24,0l0,-24Zm-19,15l-2,0l0,7l2,0l0,-7Zm12,0l-2,0l0,7l2,0l0,-7Zm-4,-6l-2,-0l0,13l2,0l0,-13Zm-4,-5l-2,0l0,18l2,0l0,-18Zm12,8l-2,-0l0,10l2,-0l0,-10Z"/></svg>