<?xml version="1.0" encoding="UTF-8" standalone="no"?><!DOCTYPE svg PUBLIC "-//W3C//DTD SVG 1.1//EN" "http://www.w3.org/Graphics/SVG/1.1/DTD/svg11.dtd"><svg width="100%" height="100%" viewBox="0 0 32 32" version="1.1" xmlns="http://www.w3.org/2000/svg" xmlns:xlink="http://www.w3.org/1999/xlink" xml:space="preserve" xmlns:serif="http://www.serif.com/" style="fill-rule:evenodd;clip-rule:evenodd;stroke-linejoin:round;stroke-miterlimit:2;"><path d="M29,5c0,-1.104 -0.896,-2 -2,-2l-22,0c-1.104,0 -2,0.896 -2,2l0,22c0,1.104 0.896,2 2,2l22,0c1.104,0 2,-0.896 2,-2l0,-22Zm-2,16l-22,0l0,6l22,0l0,-6Zm-22,-8l0,6l22,0l0,-6l-22,0Zm22,-2l0,-6l-22,0l0,6l22,0Z"/></svg>